HIERARCHY
ROOT Hips
{
	OFFSET 0.000000 0.000000 0.000000
	CHANNELS 6 Xposition Yposition Zposition Xrotation Yrotation Zrotation
	JOINT LeftUpLeg_virtual
	{
		OFFSET 0.000000 0.000000 0.000000
		CHANNELS 3 Xrotation Yrotation Zrotation
		JOINT LeftUpLeg
		{
			OFFSET 13.026900 -6.336304 -1.092800
			CHANNELS 3 Xrotation Yrotation Zrotation
			JOINT LeftLeg
			{
				OFFSET 0.524474 -46.096886 9.782700
				CHANNELS 3 Xrotation Yrotation Zrotation
				JOINT LeftFoot
				{
					OFFSET -0.524474 -53.427422 -12.948200
					CHANNELS 3 Xrotation Yrotation Zrotation
					JOINT LeftToeBase
					{
						OFFSET 0.192200 -14.009700 16.364100
						CHANNELS 3 Xrotation Yrotation Zrotation
						JOINT LeftToe_End
						{
							OFFSET -1.784700 -0.561700 9.474800
							CHANNELS 3 Xrotation Yrotation Zrotation
							End Site
							{
								OFFSET 0 0 0
							}
						}
					}
				}
			}
		}
	}
	JOINT RightUpLeg_virtual
	{
		OFFSET 0.000000 0.000000 0.000000
		CHANNELS 3 Xrotation Yrotation Zrotation
		JOINT RightUpLeg
		{
			OFFSET -12.883000 -6.336304 -1.092800
			CHANNELS 3 Xrotation Yrotation Zrotation
			JOINT RightLeg
			{
				OFFSET -0.524587 -46.096825 9.782800
				CHANNELS 3 Xrotation Yrotation Zrotation
				JOINT RightFoot
				{
					OFFSET 0.524587 -53.427383 -12.948300
					CHANNELS 3 Xrotation Yrotation Zrotation
					JOINT RightToeBase
					{
						OFFSET -0.192200 -14.009700 16.364100
						CHANNELS 3 Xrotation Yrotation Zrotation
						JOINT RightToe_End
						{
							OFFSET 1.784700 -0.561700 9.474800
							CHANNELS 3 Xrotation Yrotation Zrotation
							End Site
							{
								OFFSET 0 0 0
							}
						}
					}
				}
			}
		}
	}
	JOINT Spine_virtual
	{
		OFFSET 0.000000 0.000000 0.000000
		CHANNELS 3 Xrotation Yrotation Zrotation
		JOINT Spine
		{
			OFFSET 0.072000 7.257294 -0.789700
			CHANNELS 3 Xrotation Yrotation Zrotation
			JOINT Spine1
			{
				OFFSET 0.000000 12.508769 -0.658067
				CHANNELS 3 Xrotation Yrotation Zrotation
				JOINT Spine1_split
				{
					OFFSET 0.000000 12.508769 -0.658067
					CHANNELS 3 Xrotation Yrotation Zrotation
					JOINT Spine2
					{
						OFFSET 0.000000 12.508769 -0.658067
						CHANNELS 3 Xrotation Yrotation Zrotation
						JOINT Neck_virtual
						{
							OFFSET 0.000000 0.000000 0.000000
							CHANNELS 3 Xrotation Yrotation Zrotation
							JOINT Neck
							{
								OFFSET 0.000000 14.033295 7.520400
								CHANNELS 3 Xrotation Yrotation Zrotation
								JOINT Head
								{
									OFFSET 0.000000 8.198502 5.703100
									CHANNELS 3 Xrotation Yrotation Zrotation
									JOINT HeadTop_End
									{
										OFFSET 0.000000 17.760803 13.332701
										CHANNELS 3 Xrotation Yrotation Zrotation
										End Site
										{
											OFFSET 0 0 0
										}
									}
								}
							}
						}
						JOINT LeftShoulder_virtual
						{
							OFFSET 0.000000 0.000000 0.000000
							CHANNELS 3 Xrotation Yrotation Zrotation
							JOINT LeftShoulder
							{
								OFFSET 6.292450 5.785301 -0.669000
								CHANNELS 3 Xrotation Yrotation Zrotation
								JOINT LeftShoulder_split
								{
									OFFSET 6.292450 5.785301 -0.669000
									CHANNELS 3 Xrotation Yrotation Zrotation
									JOINT LeftArm
									{
										OFFSET 13.907140 -6.093903 1.965100
										CHANNELS 3 Xrotation Yrotation Zrotation
										JOINT LeftForeArm
										{
											OFFSET 34.140198 0.000000 0.000000
											CHANNELS 3 Xrotation Yrotation Zrotation
											JOINT LeftHand
											{
												OFFSET 40.960209 0.000000 0.000000
												CHANNELS 3 Xrotation Yrotation Zrotation
												End Site
												{
													OFFSET 0 0 0
												}
											}
										}
									}
								}
							}
						}
						JOINT RightShoulder_virtual
						{
							OFFSET 0.000000 0.000000 0.000000
							CHANNELS 3 Xrotation Yrotation Zrotation
							JOINT RightShoulder
							{
								OFFSET -6.292450 5.785301 -0.669000
								CHANNELS 3 Xrotation Yrotation Zrotation
								JOINT RightShoulder_split
								{
									OFFSET -6.292450 5.785301 -0.669000
									CHANNELS 3 Xrotation Yrotation Zrotation
									JOINT RightArm
									{
										OFFSET -13.907140 -6.093903 1.965100
										CHANNELS 3 Xrotation Yrotation Zrotation
										JOINT RightForeArm
										{
											OFFSET -34.140198 0.000000 0.000000
											CHANNELS 3 Xrotation Yrotation Zrotation
											JOINT RightHand
											{
												OFFSET -40.960209 0.000000 0.000000
												CHANNELS 3 Xrotation Yrotation Zrotation
												End Site
												{
													OFFSET 0 0 0
												}
											}
										}
									}
								}
							}
						}
					}
				}
			}
		}
	}
}
MOTION
Frames: 7
Frame Time: 0.03333333
-64.603508 34.505955 -9.953960 0.000000 0.000000 0.000000 -70.881087 15.709348 100.826044 -10.789287 31.120480 -2.167137 44.270322 4.069627 -16.311470 -8.989256 -7.450247 25.789500 -0.731021 -4.652709 3.598350 0.000000 0.000000 0.000000 -68.653708 9.881948 97.804279 -49.878515 -14.552883 -35.618750 123.187967 0.650908 12.897100 2.956949 0.753141 3.155425 3.121939 3.879833 -43.741751 0.000000 0.000000 0.000000 -72.953906 14.990314 100.712615 27.675404 -4.115005 -11.576218 3.593326 -2.713923 -3.922549 0.016529 2.920675 -0.469395 0.000000 0.000000 0.000000 5.724610 -1.798512 -0.815635 10.747875 -35.965044 7.979742 -20.072447 -11.694520 -26.513246 0.000000 0.000000 0.000000 2.515180 0.107128 -6.352524 -3.853256 16.412111 -5.783437 1.395668 -9.481468 1.492254 -47.940910 -41.775892 -29.718293 34.785843 39.253473 -2.484822 0.000000 0.000000 0.000000 10.928903 -0.373254 -4.322379 3.613523 -13.681132 -19.804806 -22.545350 -9.189989 9.725000 -32.119122 34.873638 17.719167 -2.393377 6.924101 10.510127 0.000000 0.000000 0.000000 
-69.213112 29.203785 -9.168674 0.000000 0.000000 0.000000 -71.660132 7.855186 102.558070 -11.072133 23.386073 -1.297263 45.789742 7.227459 -16.138631 -8.886832 -0.697628 25.525937 0.725681 -4.254637 0.637263 0.000000 0.000000 0.000000 -68.579068 2.328450 100.816153 -48.047587 -11.973115 -35.552108 122.342075 -3.321148 19.369590 -2.622104 -1.913444 -0.677798 4.318329 3.657227 -42.632647 0.000000 0.000000 0.000000 -72.221403 7.616324 101.645994 28.263024 -6.583383 -11.674478 3.389647 -3.749321 -2.184647 0.058023 3.289317 -0.462401 0.000000 0.000000 0.000000 5.442214 -2.922638 0.579699 7.277351 -36.407196 8.660840 -15.687415 -11.617192 -26.243153 0.000000 0.000000 0.000000 2.262628 -1.020860 -4.644334 -3.931936 16.322793 -7.123854 1.838824 -8.280967 0.169426 -60.572030 -33.929989 -38.678190 35.935080 36.956453 -1.972199 0.000000 0.000000 0.000000 11.536428 -1.203590 -2.908175 2.663042 -13.371875 -17.103523 -26.028592 -9.290491 8.786364 -29.353786 32.066772 18.928742 -1.894002 5.710312 9.193987 0.000000 0.000000 0.000000 
-73.692162 26.396843 -9.008976 0.000000 0.000000 0.000000 -72.605478 1.784148 103.221978 -13.562128 16.179767 0.757308 47.307547 10.004618 -16.119456 -6.429779 7.080917 23.181392 1.974658 -3.867558 -1.702360 0.000000 0.000000 0.000000 -68.880661 -3.860639 102.759718 -42.796439 -9.639287 -34.855104 117.491329 -8.307550 25.182605 -5.404949 -4.709470 -1.985865 4.893898 3.497533 -40.518458 0.000000 0.000000 0.000000 -71.423985 1.578728 101.937595 28.843220 -8.093178 -11.208931 2.314942 -4.871284 -0.555198 0.098898 3.198789 -0.437042 0.000000 0.000000 0.000000 4.789892 -4.006580 1.855860 3.095375 -36.338539 9.678332 -10.937360 -8.401799 -23.526660 0.000000 0.000000 0.000000 1.153693 -1.991075 -3.013204 -4.178914 16.584206 -7.303659 2.223773 -6.466056 -2.061931 -70.661968 -20.126189 -42.951467 36.811889 33.105299 -0.509949 0.000000 0.000000 0.000000 11.026799 -2.155720 -1.762755 1.845153 -12.644768 -15.447960 -28.844230 -9.588024 7.505805 -29.240709 30.460687 23.234526 -1.403801 5.242036 7.545908 0.000000 0.000000 0.000000 
-77.961494 26.524887 -8.876240 0.000000 0.000000 0.000000 -73.598184 -2.369922 102.918137 -17.115692 10.048952 3.230653 47.085350 11.524792 -15.652937 -0.351123 13.935848 17.969521 2.361791 -3.598578 -2.901932 0.000000 0.000000 0.000000 -70.051253 -8.195961 103.192383 -35.633531 -7.021478 -34.057717 107.750510 -14.246836 29.016740 -3.657048 -7.044676 0.731939 4.303141 3.604383 -37.940499 0.000000 0.000000 0.000000 -70.825647 -2.813348 101.711257 29.497992 -8.447670 -10.141737 0.691551 -6.158770 0.633004 0.148362 2.732866 -0.445606 0.000000 0.000000 0.000000 4.026408 -5.072093 2.792678 -1.452718 -35.628490 11.216619 -6.034749 -1.549477 -19.687926 0.000000 0.000000 0.000000 -0.525425 -2.947869 -1.907321 -4.601997 16.845265 -6.090176 2.614627 -4.795155 -4.155511 -77.456790 -5.370816 -42.231705 37.544652 28.642996 1.606745 0.000000 0.000000 0.000000 9.621470 -3.326459 -1.186590 1.194337 -11.745336 -15.005036 -29.566741 -11.417071 6.164233 -30.734311 29.182844 28.886782 -1.010503 4.311370 5.746731 0.000000 0.000000 0.000000 
-82.023186 29.613277 -9.396709 0.000000 0.000000 0.000000 -74.650969 -5.105941 101.677673 -20.687195 5.823668 5.940685 44.443932 11.503364 -14.321009 8.341452 17.791012 11.318775 2.082852 -3.584805 -2.771489 0.000000 0.000000 0.000000 -72.213999 -10.676680 101.999586 -28.304256 -4.148507 -33.619243 92.603691 -20.737851 29.546176 2.275077 -8.100368 7.193808 2.537880 3.966010 -35.467765 0.000000 0.000000 0.000000 -70.571318 -5.511962 101.336655 30.226029 -7.673108 -8.426336 -1.068205 -7.592892 1.161506 0.034860 2.100425 -0.343819 0.000000 0.000000 0.000000 3.364804 -6.246657 3.252046 -5.809952 -34.276574 13.247674 -1.187595 8.024455 -16.163264 0.000000 0.000000 0.000000 -2.331436 -4.034418 -1.603875 -5.123975 17.092931 -3.627291 2.313973 -3.880927 -5.737023 -81.265796 4.990990 -39.390114 38.347144 24.714522 4.141207 0.000000 0.000000 0.000000 7.730651 -4.718700 -1.368458 0.655141 -11.062390 -16.001806 -28.193812 -14.946532 5.234550 -32.374134 27.397002 33.997560 -0.752872 2.996934 4.024204 0.000000 0.000000 0.000000 
-85.994102 34.760056 -9.890972 0.000000 0.000000 0.000000 -75.896994 -6.382067 99.897111 -23.224013 3.839698 8.779570 38.878301 10.039411 -12.278235 16.438418 17.810972 5.558645 1.609489 -3.858867 -1.381297 0.000000 0.000000 0.000000 -75.117956 -11.484572 99.510727 -21.758508 -1.446517 -33.556655 72.711127 -26.530480 26.036673 9.951820 -7.660879 15.298679 0.309249 4.285192 -33.335490 0.000000 0.000000 0.000000 -70.317235 -7.053063 100.468319 30.849140 -6.005483 -6.235117 -2.667009 -9.116531 1.007593 -0.118069 1.505645 -0.264628 0.000000 0.000000 0.000000 2.787039 -7.624090 3.220957 -9.874816 -32.347656 15.402746 3.715657 18.496934 -13.961766 0.000000 0.000000 0.000000 -3.795658 -5.317677 -2.086607 -5.659649 17.305201 -0.197422 1.372816 -3.625202 -7.078075 -81.833869 9.280793 -36.670275 39.137001 22.489721 6.814397 0.000000 0.000000 0.000000 5.869976 -6.329796 -2.257424 0.175454 -10.823305 -18.235461 -25.644859 -20.272662 3.859928 -33.353193 25.197862 37.397485 -0.610314 1.956771 2.538967 0.000000 0.000000 0.000000 
-89.910652 40.424065 -9.888859 0.000000 0.000000 0.000000 -77.350041 -6.613451 97.976229 -24.348417 4.729247 11.912141 30.354617 7.414457 -10.137959 21.373595 14.683056 2.908977 0.288683 -4.466358 1.156827 0.000000 0.000000 0.000000 -77.956911 -11.790723 96.262944 -16.618677 0.502974 -33.769070 53.235184 -30.133791 20.447469 16.607345 -7.006408 22.080246 -0.622340 4.019630 -31.620521 0.000000 0.000000 0.000000 -70.490578 -7.845207 99.080254 31.188515 -3.804251 -3.964786 -3.892561 -10.651200 0.311302 -0.306927 1.152856 -0.210889 0.000000 0.000000 0.000000 2.329291 -9.204943 2.866320 -13.063357 -30.142055 17.428501 8.572198 27.986451 -13.296947 0.000000 0.000000 0.000000 -4.769216 -6.746617 -3.096872 -6.084578 17.493545 3.545507 -0.002953 -4.105756 -8.360019 -79.823950 8.598895 -35.203287 39.715358 22.157439 9.431137 0.000000 0.000000 0.000000 4.549787 -8.090795 -3.561646 -0.330931 -11.091469 -21.380331 -22.028887 -25.495518 2.699277 -33.960711 22.452898 38.919378 -0.535669 1.911717 1.320320 0.000000 0.000000 0.000000 
